<svg width="109" height="95" viewBox="0 0 109 95" fill="none" xmlns="http://www.w3.org/2000/svg">
<path fill-rule="evenodd" clip-rule="evenodd" d="M0 0H5V5H0V0ZM19 0H14V5H19V0ZM19 18H14V23H19V18ZM14 36H19V41H14V36ZM19 54H14V59H19V54ZM14 72H19V77H14V72ZM19 90H14V95H19V90ZM76 0H71V5H76V0ZM33 0H38V5H33V0ZM109 0H104V5H109V0ZM85 0H90V5H85V0ZM52 0H57V5H52V0ZM5 18H0V23H5V18ZM71 18H76V23H71V18ZM38 18H33V23H38V18ZM104 18H109V23H104V18ZM90 18H85V23H90V18ZM57 18H52V23H57V18ZM0 36H5V41H0V36ZM76 36H71V41H76V36ZM33 36H38V41H33V36ZM109 36H104V41H109V36ZM85 36H90V41H85V36ZM52 36H57V41H52V36ZM5 54H0V59H5V54ZM71 54H76V59H71V54ZM38 54H33V59H38V54ZM104 54H109V59H104V54ZM90 54H85V59H90V54ZM57 54H52V59H57V54ZM0 72H5V77H0V72ZM76 72H71V77H76V72ZM33 72H38V77H33V72ZM109 72H104V77H109V72ZM85 72H90V77H85V72ZM52 72H57V77H52V72ZM5 90H0V95H5V90ZM71 90H76V95H71V90ZM38 90H33V95H38V90ZM104 90H109V95H104V90ZM90 90H85V95H90V90ZM57 90H52V95H57V90Z" fill="#ADAAAA"/>
</svg>
