<svg width="278" height="41" viewBox="0 0 278 41" fill="none" xmlns="http://www.w3.org/2000/svg">
<path d="M79.33 31.375C77.44 31.375 75.795 31.08 74.395 30.49C73.005 29.9 71.855 29.09 70.945 28.06C70.045 27.03 69.37 25.85 68.92 24.52C68.48 23.19 68.26 21.785 68.26 20.305C68.26 18.235 68.675 16.36 69.505 14.68C70.335 12.99 71.56 11.655 73.18 10.675C74.81 9.685 76.82 9.19 79.21 9.19C81.03 9.19 82.625 9.475 83.995 10.045C85.365 10.615 86.51 11.41 87.43 12.43C88.35 13.45 89.04 14.63 89.5 15.97C89.96 17.31 90.19 18.75 90.19 20.29C90.19 22.41 89.77 24.305 88.93 25.975C88.09 27.645 86.86 28.965 85.24 29.935C83.62 30.895 81.65 31.375 79.33 31.375ZM79.255 27.88C80.375 27.88 81.345 27.68 82.165 27.28C82.985 26.87 83.665 26.31 84.205 25.6C84.755 24.88 85.16 24.065 85.42 23.155C85.69 22.245 85.825 21.29 85.825 20.29C85.825 19.22 85.68 18.225 85.39 17.305C85.1 16.385 84.675 15.58 84.115 14.89C83.565 14.19 82.88 13.65 82.06 13.27C81.25 12.88 80.315 12.685 79.255 12.685C78.165 12.685 77.205 12.885 76.375 13.285C75.545 13.685 74.85 14.24 74.29 14.95C73.74 15.66 73.325 16.475 73.045 17.395C72.765 18.305 72.625 19.27 72.625 20.29C72.625 21.31 72.76 22.275 73.03 23.185C73.3 24.095 73.71 24.905 74.26 25.615C74.81 26.325 75.5 26.88 76.33 27.28C77.16 27.68 78.135 27.88 79.255 27.88Z" fill="#0495FD"/>
<path d="M95.2729 31.375C94.7629 31.375 94.3179 31.265 93.9379 31.045C93.5579 30.835 93.2679 30.545 93.0679 30.175C92.8679 29.795 92.7679 29.37 92.7679 28.9C92.7679 28.19 92.9929 27.61 93.4429 27.16C93.9029 26.71 94.5179 26.485 95.2879 26.485C95.8179 26.485 96.2679 26.59 96.6379 26.8C97.0179 27 97.3079 27.285 97.5079 27.655C97.7079 28.015 97.8079 28.43 97.8079 28.9C97.8079 29.61 97.5829 30.2 97.1329 30.67C96.6929 31.14 96.0729 31.375 95.2729 31.375ZM110.783 31.375C109.063 31.375 107.513 31.11 106.133 30.58C104.753 30.04 103.578 29.28 102.608 28.3C101.638 27.31 100.893 26.14 100.373 24.79C99.8627 23.43 99.6077 21.935 99.6077 20.305C99.6077 18.155 100.043 16.245 100.913 14.575C101.793 12.895 103.038 11.58 104.648 10.63C106.258 9.67 108.173 9.19 110.393 9.19C111.083 9.19 111.763 9.235 112.433 9.325C113.113 9.415 113.758 9.54 114.368 9.7C114.988 9.86 115.558 10.04 116.078 10.24C116.608 10.43 117.073 10.635 117.473 10.855L117.143 14.785C116.373 14.305 115.623 13.92 114.893 13.63C114.163 13.33 113.458 13.115 112.778 12.985C112.108 12.855 111.458 12.79 110.828 12.79C109.508 12.79 108.328 13.085 107.288 13.675C106.258 14.265 105.448 15.12 104.858 16.24C104.268 17.36 103.973 18.715 103.973 20.305C103.973 21.335 104.123 22.31 104.423 23.23C104.733 24.14 105.193 24.945 105.803 25.645C106.413 26.345 107.173 26.895 108.083 27.295C109.003 27.685 110.073 27.88 111.293 27.88C111.773 27.88 112.258 27.85 112.748 27.79C113.238 27.72 113.728 27.615 114.218 27.475C114.708 27.335 115.193 27.145 115.673 26.905C116.153 26.665 116.628 26.375 117.098 26.035L117.353 29.92C116.933 30.17 116.463 30.39 115.943 30.58C115.423 30.76 114.878 30.91 114.308 31.03C113.748 31.15 113.168 31.235 112.568 31.285C111.968 31.345 111.373 31.375 110.783 31.375ZM127.885 31.375C126.565 31.375 125.415 31.165 124.435 30.745C123.455 30.315 122.64 29.73 121.99 28.99C121.34 28.25 120.855 27.405 120.535 26.455C120.215 25.505 120.055 24.51 120.055 23.47C120.055 21.98 120.355 20.65 120.955 19.48C121.555 18.3 122.43 17.37 123.58 16.69C124.74 16.01 126.15 15.67 127.81 15.67C129.09 15.67 130.21 15.87 131.17 16.27C132.14 16.66 132.95 17.21 133.6 17.92C134.26 18.63 134.755 19.46 135.085 20.41C135.415 21.35 135.58 22.37 135.58 23.47C135.58 24.97 135.275 26.315 134.665 27.505C134.065 28.695 133.19 29.64 132.04 30.34C130.89 31.03 129.505 31.375 127.885 31.375ZM127.87 28.225C128.73 28.225 129.44 28 130 27.55C130.57 27.09 130.995 26.5 131.275 25.78C131.555 25.06 131.695 24.29 131.695 23.47C131.695 22.51 131.535 21.685 131.215 20.995C130.905 20.295 130.46 19.76 129.88 19.39C129.3 19.01 128.625 18.82 127.855 18.82C127.005 18.82 126.285 19.03 125.695 19.45C125.115 19.86 124.675 20.415 124.375 21.115C124.085 21.815 123.94 22.6 123.94 23.47C123.94 24.29 124.085 25.06 124.375 25.78C124.665 26.5 125.1 27.09 125.68 27.55C126.27 28 127 28.225 127.87 28.225ZM138.87 31C138.87 29.92 138.87 28.875 138.87 27.865C138.87 26.855 138.87 25.73 138.87 24.49V22.99C138.87 21.86 138.87 20.715 138.87 19.555C138.87 18.395 138.87 17.23 138.87 16.06L142.11 15.865L142.26 18.52H142.605C142.935 18.04 143.34 17.585 143.82 17.155C144.31 16.715 144.875 16.36 145.515 16.09C146.165 15.81 146.905 15.67 147.735 15.67C149.265 15.67 150.405 16.12 151.155 17.02C151.915 17.91 152.295 19.23 152.295 20.98C152.295 21.63 152.295 22.23 152.295 22.78C152.295 23.32 152.295 23.89 152.295 24.49C152.295 25.7 152.295 26.82 152.295 27.85C152.295 28.87 152.295 29.92 152.295 31H148.485C148.485 29.92 148.485 28.875 148.485 27.865C148.485 26.855 148.485 25.795 148.485 24.685V22.15C148.485 21.17 148.315 20.43 147.975 19.93C147.645 19.43 147.045 19.18 146.175 19.18C145.665 19.18 145.195 19.285 144.765 19.495C144.345 19.695 143.96 19.97 143.61 20.32C143.27 20.66 142.96 21.045 142.68 21.475V24.685C142.68 25.825 142.68 26.895 142.68 27.895C142.68 28.885 142.68 29.92 142.68 31H138.87ZM160.79 31.375C160.1 31.375 159.43 31.33 158.78 31.24C158.14 31.15 157.54 31.025 156.98 30.865C156.42 30.705 155.93 30.525 155.51 30.325L155.765 26.965C156.215 27.235 156.705 27.47 157.235 27.67C157.775 27.86 158.335 28.01 158.915 28.12C159.495 28.22 160.07 28.27 160.64 28.27C161.08 28.27 161.48 28.235 161.84 28.165C162.2 28.085 162.485 27.93 162.695 27.7C162.915 27.47 163.025 27.13 163.025 26.68C163.025 26.37 162.915 26.115 162.695 25.915C162.485 25.715 162.135 25.53 161.645 25.36C161.155 25.19 160.485 24.995 159.635 24.775C158.785 24.555 158.05 24.275 157.43 23.935C156.82 23.585 156.35 23.13 156.02 22.57C155.7 22.01 155.54 21.285 155.54 20.395C155.54 18.895 156.02 17.735 156.98 16.915C157.94 16.095 159.235 15.685 160.865 15.685C161.555 15.685 162.225 15.74 162.875 15.85C163.525 15.95 164.115 16.085 164.645 16.255C165.185 16.415 165.635 16.58 165.995 16.75L165.725 20.125C165.265 19.835 164.765 19.595 164.225 19.405C163.685 19.205 163.165 19.055 162.665 18.955C162.165 18.855 161.75 18.805 161.42 18.805C161.05 18.805 160.715 18.855 160.415 18.955C160.115 19.045 159.875 19.2 159.695 19.42C159.525 19.64 159.44 19.925 159.44 20.275C159.44 20.565 159.51 20.82 159.65 21.04C159.79 21.25 160.055 21.445 160.445 21.625C160.845 21.805 161.43 22.005 162.2 22.225C163.24 22.515 164.105 22.82 164.795 23.14C165.495 23.46 166.02 23.885 166.37 24.415C166.72 24.935 166.895 25.645 166.895 26.545C166.895 27.505 166.685 28.345 166.265 29.065C165.855 29.785 165.2 30.35 164.3 30.76C163.41 31.17 162.24 31.375 160.79 31.375ZM174.302 31.375C172.772 31.375 171.627 30.93 170.867 30.04C170.117 29.14 169.742 27.815 169.742 26.065C169.742 25.405 169.742 24.83 169.742 24.34C169.742 23.85 169.742 23.35 169.742 22.84C169.742 21.88 169.742 21.025 169.742 20.275C169.742 19.525 169.742 18.815 169.742 18.145C169.742 17.475 169.742 16.78 169.742 16.06L173.552 15.94C173.552 17.01 173.552 18.07 173.552 19.12C173.552 20.16 173.552 21.25 173.552 22.39V24.97C173.552 25.95 173.717 26.69 174.047 27.19C174.387 27.69 174.992 27.94 175.862 27.94C176.352 27.94 176.802 27.84 177.212 27.64C177.632 27.43 178.012 27.155 178.352 26.815C178.692 26.465 179.002 26.075 179.282 25.645V22.39C179.282 21.25 179.282 20.18 179.282 19.18C179.282 18.17 179.282 17.13 179.282 16.06H183.092C183.092 17.13 183.092 18.19 183.092 19.24C183.092 20.28 183.092 21.48 183.092 22.84V24.49C183.092 25.73 183.092 26.855 183.092 27.865C183.092 28.875 183.092 29.92 183.092 31H179.852L179.702 28.525H179.357C179.027 29.005 178.622 29.465 178.142 29.905C177.662 30.335 177.102 30.69 176.462 30.97C175.822 31.24 175.102 31.375 174.302 31.375ZM187.034 31C187.034 29.92 187.034 28.875 187.034 27.865C187.034 26.855 187.034 25.73 187.034 24.49V16.195C187.034 14.965 187.034 13.755 187.034 12.565C187.034 11.365 187.034 10.185 187.034 9.025L190.844 8.665C190.844 9.855 190.844 11.07 190.844 12.31C190.844 13.54 190.844 14.835 190.844 16.195V24.49C190.844 25.73 190.844 26.855 190.844 27.865C190.844 28.875 190.844 29.92 190.844 31H187.034ZM201.182 31.375C200.112 31.375 199.202 31.21 198.452 30.88C197.702 30.54 197.127 30.005 196.727 29.275C196.327 28.545 196.127 27.595 196.127 26.425C196.127 25.695 196.127 24.96 196.127 24.22C196.127 23.48 196.127 22.725 196.127 21.955C196.127 21.175 196.127 20.38 196.127 19.57C196.127 18.76 196.127 17.92 196.127 17.05C196.127 15.96 196.127 14.955 196.127 14.035C196.127 13.115 196.127 12.175 196.127 11.215L199.892 10.51C199.892 11.27 199.892 11.99 199.892 12.67C199.892 13.34 199.892 14.025 199.892 14.725C199.892 15.425 199.892 16.2 199.892 17.05V25.285C199.892 26.255 200.077 26.99 200.447 27.49C200.827 27.98 201.427 28.225 202.247 28.225C202.587 28.225 202.952 28.165 203.342 28.045C203.742 27.925 204.117 27.74 204.467 27.49L204.722 30.625C204.472 30.785 204.157 30.92 203.777 31.03C203.407 31.14 202.997 31.225 202.547 31.285C202.097 31.345 201.642 31.375 201.182 31.375ZM193.562 18.955V16.06H204.617V18.955C203.657 18.955 202.692 18.955 201.722 18.955C200.752 18.955 199.812 18.955 198.902 18.955H197.237H193.562ZM211.126 31.345C210.286 31.345 209.536 31.17 208.876 30.82C208.216 30.47 207.691 29.965 207.301 29.305C206.921 28.635 206.731 27.83 206.731 26.89C206.731 26.06 206.876 25.36 207.166 24.79C207.456 24.21 207.836 23.74 208.306 23.38C208.786 23.01 209.311 22.725 209.881 22.525C210.461 22.325 211.046 22.18 211.636 22.09L215.911 21.46C215.941 20.76 215.821 20.22 215.551 19.84C215.291 19.46 214.916 19.2 214.426 19.06C213.936 18.91 213.371 18.835 212.731 18.835C212.391 18.835 212.021 18.865 211.621 18.925C211.231 18.975 210.816 19.055 210.376 19.165C209.946 19.275 209.496 19.415 209.026 19.585C208.556 19.745 208.076 19.94 207.586 20.17L207.406 16.855C207.776 16.715 208.191 16.575 208.651 16.435C209.121 16.295 209.631 16.17 210.181 16.06C210.731 15.94 211.301 15.85 211.891 15.79C212.491 15.72 213.106 15.685 213.736 15.685C214.956 15.685 215.996 15.865 216.856 16.225C217.726 16.575 218.391 17.14 218.851 17.92C219.311 18.69 219.541 19.695 219.541 20.935C219.541 21.415 219.541 22.01 219.541 22.72C219.541 23.43 219.541 24.08 219.541 24.67V26.32C219.541 27.05 219.541 27.795 219.541 28.555C219.541 29.305 219.541 30.12 219.541 31H216.166L215.941 29.05H215.626C215.346 29.42 214.996 29.78 214.576 30.13C214.156 30.47 213.656 30.76 213.076 31C212.506 31.23 211.856 31.345 211.126 31.345ZM212.506 28.36C212.926 28.36 213.341 28.26 213.751 28.06C214.161 27.86 214.541 27.58 214.891 27.22C215.251 26.86 215.556 26.43 215.806 25.93V23.575C215.676 23.665 215.501 23.75 215.281 23.83C215.071 23.9 214.756 23.98 214.336 24.07C213.916 24.16 213.326 24.275 212.566 24.415C212.136 24.495 211.771 24.63 211.471 24.82C211.181 25.01 210.956 25.255 210.796 25.555C210.636 25.855 210.556 26.2 210.556 26.59C210.556 27.24 210.751 27.7 211.141 27.97C211.541 28.23 211.996 28.36 212.506 28.36ZM229.542 31.375C228.472 31.375 227.562 31.21 226.812 30.88C226.062 30.54 225.487 30.005 225.087 29.275C224.687 28.545 224.487 27.595 224.487 26.425C224.487 25.695 224.487 24.96 224.487 24.22C224.487 23.48 224.487 22.725 224.487 21.955C224.487 21.175 224.487 20.38 224.487 19.57C224.487 18.76 224.487 17.92 224.487 17.05C224.487 15.96 224.487 14.955 224.487 14.035C224.487 13.115 224.487 12.175 224.487 11.215L228.252 10.51C228.252 11.27 228.252 11.99 228.252 12.67C228.252 13.34 228.252 14.025 228.252 14.725C228.252 15.425 228.252 16.2 228.252 17.05V25.285C228.252 26.255 228.437 26.99 228.807 27.49C229.187 27.98 229.787 28.225 230.607 28.225C230.947 28.225 231.312 28.165 231.702 28.045C232.102 27.925 232.477 27.74 232.827 27.49L233.082 30.625C232.832 30.785 232.517 30.92 232.137 31.03C231.767 31.14 231.357 31.225 230.907 31.285C230.457 31.345 230.002 31.375 229.542 31.375ZM221.922 18.955V16.06H232.977V18.955C232.017 18.955 231.052 18.955 230.082 18.955C229.112 18.955 228.172 18.955 227.262 18.955H225.597H221.922ZM236.006 31C236.006 29.92 236.006 28.875 236.006 27.865C236.006 26.855 236.006 25.73 236.006 24.49V22.99C236.006 22.03 236.006 21.165 236.006 20.395C236.006 19.615 236.006 18.88 236.006 18.19C236.006 17.49 236.006 16.78 236.006 16.06L239.816 15.94C239.816 16.67 239.816 17.39 239.816 18.1C239.816 18.81 239.816 19.56 239.816 20.35C239.816 21.13 239.816 22.01 239.816 22.99V24.49C239.816 25.73 239.816 26.855 239.816 27.865C239.816 28.875 239.816 29.92 239.816 31H236.006ZM237.866 13.375C237.136 13.375 236.551 13.195 236.111 12.835C235.671 12.465 235.451 11.88 235.451 11.08C235.451 10.35 235.671 9.795 236.111 9.415C236.551 9.025 237.146 8.83 237.896 8.83C238.646 8.83 239.236 9.03 239.666 9.43C240.106 9.83 240.326 10.38 240.326 11.08C240.326 11.88 240.106 12.465 239.666 12.835C239.236 13.195 238.636 13.375 237.866 13.375ZM251.02 31.375C249.7 31.375 248.55 31.165 247.57 30.745C246.59 30.315 245.775 29.73 245.125 28.99C244.475 28.25 243.99 27.405 243.67 26.455C243.35 25.505 243.19 24.51 243.19 23.47C243.19 21.98 243.49 20.65 244.09 19.48C244.69 18.3 245.565 17.37 246.715 16.69C247.875 16.01 249.285 15.67 250.945 15.67C252.225 15.67 253.345 15.87 254.305 16.27C255.275 16.66 256.085 17.21 256.735 17.92C257.395 18.63 257.89 19.46 258.22 20.41C258.55 21.35 258.715 22.37 258.715 23.47C258.715 24.97 258.41 26.315 257.8 27.505C257.2 28.695 256.325 29.64 255.175 30.34C254.025 31.03 252.64 31.375 251.02 31.375ZM251.005 28.225C251.865 28.225 252.575 28 253.135 27.55C253.705 27.09 254.13 26.5 254.41 25.78C254.69 25.06 254.83 24.29 254.83 23.47C254.83 22.51 254.67 21.685 254.35 20.995C254.04 20.295 253.595 19.76 253.015 19.39C252.435 19.01 251.76 18.82 250.99 18.82C250.14 18.82 249.42 19.03 248.83 19.45C248.25 19.86 247.81 20.415 247.51 21.115C247.22 21.815 247.075 22.6 247.075 23.47C247.075 24.29 247.22 25.06 247.51 25.78C247.8 26.5 248.235 27.09 248.815 27.55C249.405 28 250.135 28.225 251.005 28.225ZM262.005 31C262.005 29.92 262.005 28.875 262.005 27.865C262.005 26.855 262.005 25.73 262.005 24.49V22.99C262.005 21.86 262.005 20.715 262.005 19.555C262.005 18.395 262.005 17.23 262.005 16.06L265.245 15.865L265.395 18.52H265.74C266.07 18.04 266.475 17.585 266.955 17.155C267.445 16.715 268.01 16.36 268.65 16.09C269.3 15.81 270.04 15.67 270.87 15.67C272.4 15.67 273.54 16.12 274.29 17.02C275.05 17.91 275.43 19.23 275.43 20.98C275.43 21.63 275.43 22.23 275.43 22.78C275.43 23.32 275.43 23.89 275.43 24.49C275.43 25.7 275.43 26.82 275.43 27.85C275.43 28.87 275.43 29.92 275.43 31H271.62C271.62 29.92 271.62 28.875 271.62 27.865C271.62 26.855 271.62 25.795 271.62 24.685V22.15C271.62 21.17 271.45 20.43 271.11 19.93C270.78 19.43 270.18 19.18 269.31 19.18C268.8 19.18 268.33 19.285 267.9 19.495C267.48 19.695 267.095 19.97 266.745 20.32C266.405 20.66 266.095 21.045 265.815 21.475V24.685C265.815 25.825 265.815 26.895 265.815 27.895C265.815 28.885 265.815 29.92 265.815 31H262.005Z" fill="#3F3F3F"/>
<circle cx="37" cy="22" r="19" fill="#3F3F3F"/>
<path d="M19 41C15.2422 41 11.5687 39.8857 8.44416 37.7979C5.31963 35.7102 2.88435 32.7428 1.44629 29.271C0.00822352 25.7992 -0.36804 21.9789 0.36508 18.2933C1.0982 14.6076 2.90777 11.2222 5.56497 8.56497C8.22217 5.90777 11.6076 4.0982 15.2933 3.36508C18.9789 2.63196 22.7992 3.00822 26.271 4.44629C29.7428 5.88436 32.7102 8.31963 34.7979 11.4442C36.8857 14.5687 38 18.2422 38 22L19 22V41Z" fill="#3884AF"/>
</svg>
